<svg width="236" height="199" viewBox="0 0 236 199" fill="none" xmlns="http://www.w3.org/2000/svg">
<path d="M71.915 0.695507C79.6185 0.75675 87.092 2.06513 94.3354 4.62066C101.799 7.17793 108.923 10.8774 115.708 15.7191C116.801 16.7685 118.003 17.8189 119.315 18.8702C120.424 17.8382 121.643 16.807 122.972 15.7768C129.833 11.0436 136.905 7.45703 144.188 5.01699C151.692 2.5787 159.185 1.38931 166.668 1.4488C174.372 1.51004 181.845 2.81843 189.089 5.37395C196.552 7.93122 203.566 11.7339 210.129 16.7819C216.914 21.6236 222.806 28.1234 227.803 36.2815C233.021 44.4413 235.585 54.1412 235.496 65.3812L234.6 178.094C233.18 190.572 225.863 197.279 212.649 198.215C206.486 198.166 201.108 196.25 196.516 192.466C192.145 188.476 189.983 183.567 190.03 177.739L190.906 67.5246C190.946 62.5291 189.988 58.3582 188.034 55.0121C186.081 51.4578 183.902 48.7344 181.495 46.8418C179.091 44.7411 176.571 43.2639 173.937 42.4103C171.304 41.3486 168.667 40.8072 166.025 40.7862C163.384 40.7652 160.739 41.2646 158.089 42.2843C155.662 43.0977 153.229 44.5355 150.791 46.5977C148.355 48.4518 146.133 51.1402 144.124 54.663C142.116 57.9776 140.983 62.1319 140.723 67.1257L139.847 177.34C138.427 189.819 131.11 196.526 117.895 197.461C111.733 197.412 106.355 195.496 101.763 191.713C97.3921 187.723 95.23 182.814 95.2763 176.986L96.1525 66.7713C96.1923 61.7758 95.2349 57.6049 93.2805 54.2588C91.3277 50.7045 89.1482 47.9811 86.742 46.0885C84.3374 43.9878 81.8179 42.5106 79.1833 41.657C76.5503 40.5953 73.9133 40.0539 71.2721 40.0329C68.6309 40.0119 65.9855 40.5113 63.336 41.5311C60.9083 42.3444 58.4756 43.7822 56.038 45.8444C53.602 47.6985 51.3794 50.3869 49.3704 53.9097C47.363 57.2243 46.2294 61.3786 45.9696 66.3724L45.0934 176.587C43.8936 189.067 36.6866 195.775 23.4722 196.711C17.3094 196.662 11.9318 194.746 7.33952 190.962C2.96895 186.972 0.80683 182.063 0.853164 176.235L1.74923 63.5229C2.27879 52.2864 5.107 42.6293 10.2338 34.5518C15.3607 26.4743 21.3547 20.0689 28.2159 15.3357C35.0787 10.3944 42.1517 6.70373 49.4349 4.2637C56.9382 1.82541 64.4315 0.636013 71.915 0.695507Z" fill="black"/>
</svg>
