<svg width="818" height="98" viewBox="0 0 818 98" fill="none" xmlns="http://www.w3.org/2000/svg">
<path d="M96.8125 4.875L91.0625 96.625L62.5625 97.875L62.8125 49.5L49.9375 88.5H38.9375L29.0625 53.625L28.9375 94.125L0.0625 95L1.3125 8.625L33.4375 7.375L46.1875 48.75L63.1875 4.875H96.8125ZM160.625 5.875C160.375 9.79167 160.146 13.6667 159.938 17.5C159.729 21.3333 159.458 25.2083 159.125 29.125L132.625 30.5L132 38.375H150.625L149.25 57.75L130.5 58.375L129.875 67.5H145.375H156.375C156.125 72.0833 155.854 76.6458 155.562 81.1875C155.312 85.6875 155.083 90.2083 154.875 94.75L101 96L103 5.875H160.625ZM221.625 44.5C221.625 46.9583 221.625 49.3958 221.625 51.8125C221.625 54.2292 221.5 56.6667 221.25 59.125C220.792 64.3333 219.667 69.2708 217.875 73.9375C216.083 78.5625 213.646 82.625 210.562 86.125C207.521 89.625 203.812 92.3958 199.438 94.4375C195.062 96.4792 190.042 97.5 184.375 97.5C182.167 97.5 179.854 97.3125 177.438 96.9375C175.062 96.5625 172.688 96 170.312 95.25C167.979 94.5 165.729 93.5833 163.562 92.5C161.438 91.375 159.542 90.0833 157.875 88.625L161.75 62.75C164.208 65.125 166.938 67.0625 169.938 68.5625C172.938 70.0208 176.208 70.75 179.75 70.75C182.042 70.75 183.979 70.4167 185.562 69.75C187.146 69.0833 188.458 68.1667 189.5 67C190.542 65.8333 191.354 64.4792 191.938 62.9375C192.562 61.3542 193 59.6875 193.25 57.9375C193.542 56.1458 193.708 54.3125 193.75 52.4375C193.833 50.5625 193.875 48.7083 193.875 46.875C193.875 40.25 193.542 33.6667 192.875 27.125C192.208 20.5417 191.625 13.9583 191.125 7.375L219.75 5.5C221 18.5 221.625 31.5 221.625 44.5ZM260.938 8L254.062 93.125L227.688 94.5V9.75L260.938 8ZM350.312 6.375L345.812 91.125L313.062 94.125L295.562 48.75L292.812 95H264.688L266.938 6.375L298.188 4.875L319.812 49.875L320.812 7.375L350.312 6.375ZM433.125 90.625L402.125 94.625L398.375 80.5H384.125L381 94.625L349.125 91.5L374 8.25L408.75 6.5L433.125 90.625ZM396.125 61.375L391.375 39.625L386.75 61.375H396.125ZM504 8.375L481.125 95.375L450.125 97.125L422 9.25L451.625 6.5L463.625 57.75L475.25 6.5L504 8.375ZM539.812 8L532.938 93.125L506.562 94.5V9.75L539.812 8ZM604 37.125C604 40.4583 603.396 43.6458 602.188 46.6875C600.979 49.6875 599.375 52.5208 597.375 55.1875C595.417 57.8125 593.167 60.25 590.625 62.5C588.125 64.7083 585.583 66.7083 583 68.5H602.75L601.25 94.5L542.75 92.5V69.75C544.958 69 547.271 68.1042 549.688 67.0625C552.146 65.9792 554.542 64.75 556.875 63.375C559.25 62 561.479 60.4583 563.562 58.75C565.688 57.0417 567.542 55.1875 569.125 53.1875C570.75 51.1458 572.021 48.9375 572.938 46.5625C573.896 44.1875 574.375 41.625 574.375 38.875C574.375 37.2917 574.083 35.8958 573.5 34.6875C572.958 33.4792 572.188 32.4792 571.188 31.6875C570.188 30.8542 569.021 30.25 567.688 29.875C566.396 29.4583 565 29.25 563.5 29.25C562.25 29.25 560.979 29.3958 559.688 29.6875C558.396 29.9375 557.125 30.3125 555.875 30.8125C554.625 31.3125 553.438 31.9375 552.312 32.6875C551.229 33.3958 550.25 34.2083 549.375 35.125L543.875 10.625C545.417 9.08333 547.188 7.79167 549.188 6.75C551.188 5.70833 553.292 4.875 555.5 4.25C557.708 3.58333 559.958 3.10417 562.25 2.8125C564.542 2.52083 566.792 2.375 569 2.375C573.917 2.375 578.5 3.27083 582.75 5.0625C587 6.8125 590.688 9.25 593.812 12.375C596.979 15.4583 599.458 19.125 601.25 23.375C603.083 27.625 604 32.2083 604 37.125ZM685.438 51.25C685.438 54.9167 685.021 58.5625 684.188 62.1875C683.396 65.8125 682.229 69.2917 680.688 72.625C679.146 75.9583 677.25 79.0625 675 81.9375C672.792 84.8125 670.25 87.3125 667.375 89.4375C664.5 91.5625 661.333 93.2292 657.875 94.4375C654.458 95.6458 650.771 96.25 646.812 96.25C642.812 96.25 639.083 95.6458 635.625 94.4375C632.167 93.2292 629 91.5625 626.125 89.4375C623.292 87.3125 620.75 84.8125 618.5 81.9375C616.25 79.0625 614.354 75.9583 612.812 72.625C611.271 69.2917 610.083 65.8125 609.25 62.1875C608.458 58.5208 608.062 54.875 608.062 51.25C608.062 47.625 608.458 43.9792 609.25 40.3125C610.083 36.6458 611.271 33.1458 612.812 29.8125C614.354 26.4792 616.25 23.375 618.5 20.5C620.75 17.5833 623.292 15.0625 626.125 12.9375C629 10.8125 632.167 9.14583 635.625 7.9375C639.125 6.72917 642.854 6.125 646.812 6.125C650.771 6.125 654.458 6.72917 657.875 7.9375C661.333 9.14583 664.5 10.8125 667.375 12.9375C670.25 15.0625 672.792 17.5833 675 20.5C677.25 23.375 679.146 26.4792 680.688 29.8125C682.229 33.1458 683.396 36.6458 684.188 40.3125C685.021 43.9792 685.438 47.625 685.438 51.25ZM659.062 53.125C659.062 51.2917 658.812 49.25 658.312 47C657.812 44.75 657.042 42.6458 656 40.6875C654.958 38.7292 653.625 37.0833 652 35.75C650.375 34.4167 648.438 33.75 646.188 33.75C643.896 33.75 641.938 34.4167 640.312 35.75C638.688 37.0833 637.333 38.7292 636.25 40.6875C635.208 42.6458 634.438 44.75 633.938 47C633.438 49.25 633.188 51.2917 633.188 53.125C633.188 54.9583 633.438 57 633.938 59.25C634.438 61.5 635.208 63.6042 636.25 65.5625C637.333 67.5208 638.688 69.1667 640.312 70.5C641.938 71.8333 643.896 72.5 646.188 72.5C648.438 72.5 650.375 71.8333 652 70.5C653.625 69.1667 654.958 67.5208 656 65.5625C657.042 63.6042 657.812 61.5 658.312 59.25C658.812 57 659.062 54.9583 659.062 53.125ZM750.25 37.125C750.25 40.4583 749.646 43.6458 748.438 46.6875C747.229 49.6875 745.625 52.5208 743.625 55.1875C741.667 57.8125 739.417 60.25 736.875 62.5C734.375 64.7083 731.833 66.7083 729.25 68.5H749L747.5 94.5L689 92.5V69.75C691.208 69 693.521 68.1042 695.938 67.0625C698.396 65.9792 700.792 64.75 703.125 63.375C705.5 62 707.729 60.4583 709.812 58.75C711.938 57.0417 713.792 55.1875 715.375 53.1875C717 51.1458 718.271 48.9375 719.188 46.5625C720.146 44.1875 720.625 41.625 720.625 38.875C720.625 37.2917 720.333 35.8958 719.75 34.6875C719.208 33.4792 718.438 32.4792 717.438 31.6875C716.438 30.8542 715.271 30.25 713.938 29.875C712.646 29.4583 711.25 29.25 709.75 29.25C708.5 29.25 707.229 29.3958 705.938 29.6875C704.646 29.9375 703.375 30.3125 702.125 30.8125C700.875 31.3125 699.688 31.9375 698.562 32.6875C697.479 33.3958 696.5 34.2083 695.625 35.125L690.125 10.625C691.667 9.08333 693.438 7.79167 695.438 6.75C697.438 5.70833 699.542 4.875 701.75 4.25C703.958 3.58333 706.208 3.10417 708.5 2.8125C710.792 2.52083 713.042 2.375 715.25 2.375C720.167 2.375 724.75 3.27083 729 5.0625C733.25 6.8125 736.938 9.25 740.062 12.375C743.229 15.4583 745.708 19.125 747.5 23.375C749.333 27.625 750.25 32.2083 750.25 37.125ZM817.875 64.5C817.875 70.0417 816.979 74.8542 815.188 78.9375C813.438 82.9792 810.979 86.3542 807.812 89.0625C804.646 91.7292 800.854 93.7292 796.438 95.0625C792.062 96.3542 787.25 97 782 97C779.625 97 777.188 96.7708 774.688 96.3125C772.188 95.8542 769.708 95.2292 767.25 94.4375C764.792 93.6458 762.396 92.7083 760.062 91.625C757.771 90.5417 755.625 89.375 753.625 88.125L756 63C757.583 64.0833 759.354 65.125 761.312 66.125C763.271 67.0833 765.292 67.9583 767.375 68.75C769.5 69.5 771.625 70.1042 773.75 70.5625C775.917 71.0208 778 71.25 780 71.25C781.167 71.25 782.354 71.1667 783.562 71C784.812 70.7917 785.938 70.4375 786.938 69.9375C787.938 69.4375 788.75 68.7292 789.375 67.8125C790.042 66.8958 790.375 65.7083 790.375 64.25C790.375 63.3333 789.958 62.4792 789.125 61.6875C788.292 60.8958 787.292 60.2292 786.125 59.6875C784.958 59.1042 783.75 58.6667 782.5 58.375C781.25 58.0417 780.208 57.875 779.375 57.875C778.792 57.875 778.083 57.9167 777.25 58C776.458 58.0417 775.646 58.125 774.812 58.25C773.979 58.375 773.167 58.5625 772.375 58.8125C771.625 59.0208 771.042 59.2917 770.625 59.625L771 41.75C771.708 41.8333 772.375 41.8958 773 41.9375C773.625 41.9792 774.292 42 775 42C776.458 42 778.042 41.875 779.75 41.625C781.458 41.3333 783.042 40.8542 784.5 40.1875C785.958 39.4792 787.167 38.5208 788.125 37.3125C789.125 36.1042 789.625 34.5417 789.625 32.625C789.625 31.25 789.25 30.1458 788.5 29.3125C787.75 28.4375 786.812 27.7708 785.688 27.3125C784.604 26.8542 783.417 26.5417 782.125 26.375C780.833 26.2083 779.667 26.125 778.625 26.125C775.25 26.125 771.917 26.7083 768.625 27.875C765.375 29.0417 762.5 30.75 760 33L754.75 10.25C758.583 7.125 762.938 4.75 767.812 3.125C772.729 1.45833 777.667 0.625 782.625 0.625C787.167 0.625 791.5 1.29167 795.625 2.625C799.792 3.91667 803.458 5.85417 806.625 8.4375C809.792 10.9792 812.312 14.125 814.188 17.875C816.062 21.625 817 25.9583 817 30.875C817 32.2917 816.792 33.7292 816.375 35.1875C815.958 36.6458 815.396 38.0625 814.688 39.4375C813.979 40.8125 813.146 42.1042 812.188 43.3125C811.229 44.4792 810.208 45.5 809.125 46.375C810.875 47.1667 812.312 48.2292 813.438 49.5625C814.562 50.8958 815.458 52.375 816.125 54C816.792 55.625 817.25 57.3542 817.5 59.1875C817.75 60.9792 817.875 62.75 817.875 64.5Z" fill="black"/>
</svg>
