<svg width="742" height="94" viewBox="0 0 742 94" fill="none" xmlns="http://www.w3.org/2000/svg">
<path d="M96.8125 0.875L91.0625 92.625L62.5625 93.875L62.8125 45.5L49.9375 84.5H38.9375L29.0625 49.625L28.9375 90.125L0.0625 91L1.3125 4.625L33.4375 3.375L46.1875 44.75L63.1875 0.875H96.8125ZM170.562 41.5C170.562 45.125 170.312 48.75 169.812 52.375C162.688 52.8333 155.604 53.5833 148.562 54.625C141.521 55.625 134.479 56.625 127.438 57.625C128.521 60.625 130.208 63.0208 132.5 64.8125C134.833 66.6042 137.604 67.5 140.812 67.5C142.479 67.5 144.292 67.1875 146.25 66.5625C148.25 65.9375 150.229 65.1667 152.188 64.25C154.146 63.2917 156.021 62.2708 157.812 61.1875C159.604 60.1042 161.146 59.125 162.438 58.25L159.438 86.625C157.812 87.875 156.042 88.9375 154.125 89.8125C152.25 90.6875 150.292 91.3958 148.25 91.9375C146.208 92.4792 144.146 92.875 142.062 93.125C139.979 93.375 137.938 93.5 135.938 93.5C131.812 93.5 128.042 92.9375 124.625 91.8125C121.208 90.6875 118.104 89.125 115.312 87.125C112.562 85.0833 110.146 82.6875 108.062 79.9375C105.979 77.1875 104.25 74.1875 102.875 70.9375C101.5 67.6875 100.458 64.25 99.75 60.625C99.0417 57 98.6875 53.3333 98.6875 49.625C98.6875 45.75 99.0417 41.875 99.75 38C100.458 34.125 101.521 30.3958 102.938 26.8125C104.396 23.2292 106.208 19.9167 108.375 16.875C110.583 13.7917 113.146 11.1042 116.062 8.8125C118.979 6.52083 122.271 4.72917 125.938 3.4375C129.646 2.14583 133.729 1.5 138.188 1.5C141.896 1.5 145.271 2.02083 148.312 3.0625C151.396 4.0625 154.125 5.47917 156.5 7.3125C158.917 9.10417 161 11.25 162.75 13.75C164.542 16.25 166 19 167.125 22C168.292 24.9583 169.146 28.1042 169.688 31.4375C170.271 34.7292 170.562 38.0833 170.562 41.5ZM145.562 38.25C145.562 37.0833 145.438 35.8958 145.188 34.6875C144.938 33.4375 144.521 32.3125 143.938 31.3125C143.396 30.3125 142.667 29.5 141.75 28.875C140.833 28.2083 139.688 27.875 138.312 27.875C136.646 27.875 135.167 28.3333 133.875 29.25C132.625 30.125 131.542 31.25 130.625 32.625C129.708 33.9583 128.958 35.4167 128.375 37C127.792 38.5833 127.354 40.0417 127.062 41.375L145.562 39.625V38.25ZM230 40.5C230 42.9583 230 45.3958 230 47.8125C230 50.2292 229.875 52.6667 229.625 55.125C229.167 60.3333 228.042 65.2708 226.25 69.9375C224.458 74.5625 222.021 78.625 218.938 82.125C215.896 85.625 212.188 88.3958 207.812 90.4375C203.438 92.4792 198.417 93.5 192.75 93.5C190.542 93.5 188.229 93.3125 185.812 92.9375C183.438 92.5625 181.062 92 178.688 91.25C176.354 90.5 174.104 89.5833 171.938 88.5C169.812 87.375 167.917 86.0833 166.25 84.625L170.125 58.75C172.583 61.125 175.312 63.0625 178.312 64.5625C181.312 66.0208 184.583 66.75 188.125 66.75C190.417 66.75 192.354 66.4167 193.938 65.75C195.521 65.0833 196.833 64.1667 197.875 63C198.917 61.8333 199.729 60.4792 200.312 58.9375C200.938 57.3542 201.375 55.6875 201.625 53.9375C201.917 52.1458 202.083 50.3125 202.125 48.4375C202.208 46.5625 202.25 44.7083 202.25 42.875C202.25 36.25 201.917 29.6667 201.25 23.125C200.583 16.5417 200 9.95833 199.5 3.375L228.125 1.5C229.375 14.5 230 27.5 230 40.5ZM268.188 4L263.812 89.125L237.438 90.5L234.938 5.75L268.188 4ZM346.562 31.75C346.562 35 346.271 37.9583 345.688 40.625C345.146 43.25 344.271 45.6667 343.062 47.875C341.854 50.0833 340.292 52.125 338.375 54C336.458 55.875 334.146 57.6667 331.438 59.375L346.312 85.875L318.188 91.375L308.562 64.75L300.812 65L299.688 91H272.812C273.021 81.5 273.208 72.0417 273.375 62.625C273.583 53.2083 273.812 43.75 274.062 34.25C274.146 29.4583 274.229 24.7083 274.312 20C274.396 15.2917 274.562 10.5417 274.812 5.75C277.729 4.66667 280.604 3.77083 283.438 3.0625C286.271 2.35417 289.104 1.8125 291.938 1.4375C294.812 1.02083 297.708 0.75 300.625 0.625C303.583 0.458333 306.604 0.375 309.688 0.375C314.438 0.375 319.021 1.04167 323.438 2.375C327.896 3.66667 331.833 5.625 335.25 8.25C338.667 10.875 341.396 14.1458 343.438 18.0625C345.521 21.9792 346.562 26.5417 346.562 31.75ZM318.562 33.75C318.562 32 318.312 30.3958 317.812 28.9375C317.354 27.4792 316.646 26.2292 315.688 25.1875C314.771 24.1042 313.604 23.2708 312.188 22.6875C310.812 22.0625 309.188 21.75 307.312 21.75C306.479 21.75 305.667 21.8125 304.875 21.9375C304.083 22.0208 303.312 22.1667 302.562 22.375L301.562 45.625H303.062C304.854 45.625 306.667 45.3958 308.5 44.9375C310.375 44.4792 312.042 43.7708 313.5 42.8125C315 41.8542 316.208 40.625 317.125 39.125C318.083 37.625 318.562 35.8333 318.562 33.75ZM428.188 44.125C428.188 47.9167 427.75 51.5833 426.875 55.125C426 58.625 424.729 61.9167 423.062 65C421.438 68.0833 419.438 70.9167 417.062 73.5C414.729 76.0417 412.083 78.2292 409.125 80.0625C406.208 81.8958 403.021 83.3333 399.562 84.375C396.104 85.375 392.438 85.875 388.562 85.875C384.812 85.875 381.229 85.3958 377.812 84.4375C374.438 83.4792 371.271 82.1458 368.312 80.4375C365.354 78.6875 362.667 76.6042 360.25 74.1875C357.875 71.7292 355.833 69.0208 354.125 66.0625C352.458 63.0625 351.146 59.8542 350.188 56.4375C349.271 53.0208 348.812 49.4583 348.812 45.75C348.812 42.125 349.25 38.5833 350.125 35.125C351 31.625 352.25 28.3333 353.875 25.25C355.542 22.1667 357.542 19.3333 359.875 16.75C362.208 14.1667 364.812 11.9375 367.688 10.0625C370.604 8.1875 373.75 6.72917 377.125 5.6875C380.5 4.64583 384.062 4.125 387.812 4.125C393.854 4.125 399.354 5.0625 404.312 6.9375C409.312 8.8125 413.562 11.5 417.062 15C420.604 18.4583 423.333 22.6667 425.25 27.625C427.208 32.5417 428.188 38.0417 428.188 44.125ZM400.438 45.75C400.438 43.9583 400.167 42.2292 399.625 40.5625C399.125 38.8542 398.375 37.3542 397.375 36.0625C396.375 34.7292 395.125 33.6667 393.625 32.875C392.167 32.0417 390.479 31.625 388.562 31.625C386.604 31.625 384.854 31.9792 383.312 32.6875C381.771 33.3958 380.438 34.375 379.312 35.625C378.229 36.8333 377.396 38.2708 376.812 39.9375C376.229 41.5625 375.938 43.2917 375.938 45.125C375.938 46.875 376.188 48.625 376.688 50.375C377.188 52.125 377.938 53.7083 378.938 55.125C379.938 56.5417 381.167 57.6875 382.625 58.5625C384.125 59.4375 385.854 59.875 387.812 59.875C389.771 59.875 391.521 59.5 393.062 58.75C394.646 57.9583 395.979 56.9167 397.062 55.625C398.146 54.2917 398.979 52.7708 399.562 51.0625C400.146 49.3542 400.438 47.5833 400.438 45.75ZM528.375 42.375C528.375 48.2083 527.625 53.4375 526.125 58.0625C524.625 62.6875 522.521 66.7917 519.812 70.375C517.146 73.9167 513.958 76.9375 510.25 79.4375C506.542 81.9375 502.479 84 498.062 85.625C493.646 87.2083 488.938 88.375 483.938 89.125C478.979 89.875 473.875 90.25 468.625 90.25C466.667 90.25 464.75 90.2083 462.875 90.125C461 90 459.083 89.8333 457.125 89.625L458.875 8.25C463.458 6.79167 468.167 5.77083 473 5.1875C477.875 4.5625 482.708 4.25 487.5 4.25C493.458 4.25 498.938 5.08333 503.938 6.75C508.938 8.41667 513.25 10.875 516.875 14.125C520.5 17.3333 523.312 21.3125 525.312 26.0625C527.354 30.7708 528.375 36.2083 528.375 42.375ZM485.875 66.375C488.375 66 490.646 65.25 492.688 64.125C494.771 62.9583 496.562 61.5417 498.062 59.875C499.562 58.1667 500.708 56.25 501.5 54.125C502.333 51.9583 502.75 49.6667 502.75 47.25C502.75 44.875 502.5 42.6667 502 40.625C501.5 38.5417 500.688 36.75 499.562 35.25C498.438 33.7083 496.958 32.5 495.125 31.625C493.292 30.7083 491.042 30.2083 488.375 30.125L485.875 66.375ZM607.875 86.625L576.875 90.625L573.125 76.5H558.875L555.75 90.625L523.875 87.5L548.75 4.25L583.5 2.5L607.875 86.625ZM570.875 57.375L566.125 35.625L561.5 57.375H570.875ZM667.625 3.875L667 30.375L648.375 31.125L646.125 89.125L619.75 90.5L617.375 32.5L598.75 33.5L599.5 4L667.625 3.875ZM741.875 86.625L710.875 90.625L707.125 76.5H692.875L689.75 90.625L657.875 87.5L682.75 4.25L717.5 2.5L741.875 86.625ZM704.875 57.375L700.125 35.625L695.5 57.375H704.875Z" fill="black"/>
</svg>
