<svg width="613" height="94" viewBox="0 0 613 94" fill="none" xmlns="http://www.w3.org/2000/svg">
<path d="M56.125 56.375L53.5 84.125L0.875 88.25C1.125 73.7083 1.39583 59.25 1.6875 44.875C2.02083 30.5 2.41667 16.0417 2.875 1.5H35.375C34.4167 10.625 33.5 19.75 32.625 28.875C31.75 37.9583 31.125 47.125 30.75 56.375C32.7083 56.4583 34.6458 56.5 36.5625 56.5C38.4792 56.5 40.4167 56.5 42.375 56.5C44.7083 56.5 47 56.4792 49.25 56.4375C51.5 56.3958 53.7917 56.375 56.125 56.375ZM136.312 44.125C136.312 47.9167 135.875 51.5833 135 55.125C134.125 58.625 132.854 61.9167 131.188 65C129.562 68.0833 127.562 70.9167 125.188 73.5C122.854 76.0417 120.208 78.2292 117.25 80.0625C114.333 81.8958 111.146 83.3333 107.688 84.375C104.229 85.375 100.562 85.875 96.6875 85.875C92.9375 85.875 89.3542 85.3958 85.9375 84.4375C82.5625 83.4792 79.3958 82.1458 76.4375 80.4375C73.4792 78.6875 70.7917 76.6042 68.375 74.1875C66 71.7292 63.9583 69.0208 62.25 66.0625C60.5833 63.0625 59.2708 59.8542 58.3125 56.4375C57.3958 53.0208 56.9375 49.4583 56.9375 45.75C56.9375 42.125 57.375 38.5833 58.25 35.125C59.125 31.625 60.375 28.3333 62 25.25C63.6667 22.1667 65.6667 19.3333 68 16.75C70.3333 14.1667 72.9375 11.9375 75.8125 10.0625C78.7292 8.1875 81.875 6.72917 85.25 5.6875C88.625 4.64583 92.1875 4.125 95.9375 4.125C101.979 4.125 107.479 5.0625 112.438 6.9375C117.438 8.8125 121.688 11.5 125.188 15C128.729 18.4583 131.458 22.6667 133.375 27.625C135.333 32.5417 136.312 38.0417 136.312 44.125ZM108.562 45.75C108.562 43.9583 108.292 42.2292 107.75 40.5625C107.25 38.8542 106.5 37.3542 105.5 36.0625C104.5 34.7292 103.25 33.6667 101.75 32.875C100.292 32.0417 98.6042 31.625 96.6875 31.625C94.7292 31.625 92.9792 31.9792 91.4375 32.6875C89.8958 33.3958 88.5625 34.375 87.4375 35.625C86.3542 36.8333 85.5208 38.2708 84.9375 39.9375C84.3542 41.5625 84.0625 43.2917 84.0625 45.125C84.0625 46.875 84.3125 48.625 84.8125 50.375C85.3125 52.125 86.0625 53.7083 87.0625 55.125C88.0625 56.5417 89.2917 57.6875 90.75 58.5625C92.25 59.4375 93.9792 59.875 95.9375 59.875C97.8958 59.875 99.6458 59.5 101.188 58.75C102.771 57.9583 104.104 56.9167 105.188 55.625C106.271 54.2917 107.104 52.7708 107.688 51.0625C108.271 49.3542 108.562 47.5833 108.562 45.75ZM217.938 44.125C217.938 47.9167 217.5 51.5833 216.625 55.125C215.75 58.625 214.479 61.9167 212.812 65C211.188 68.0833 209.188 70.9167 206.812 73.5C204.479 76.0417 201.833 78.2292 198.875 80.0625C195.958 81.8958 192.771 83.3333 189.312 84.375C185.854 85.375 182.188 85.875 178.312 85.875C174.562 85.875 170.979 85.3958 167.562 84.4375C164.188 83.4792 161.021 82.1458 158.062 80.4375C155.104 78.6875 152.417 76.6042 150 74.1875C147.625 71.7292 145.583 69.0208 143.875 66.0625C142.208 63.0625 140.896 59.8542 139.938 56.4375C139.021 53.0208 138.562 49.4583 138.562 45.75C138.562 42.125 139 38.5833 139.875 35.125C140.75 31.625 142 28.3333 143.625 25.25C145.292 22.1667 147.292 19.3333 149.625 16.75C151.958 14.1667 154.562 11.9375 157.438 10.0625C160.354 8.1875 163.5 6.72917 166.875 5.6875C170.25 4.64583 173.812 4.125 177.562 4.125C183.604 4.125 189.104 5.0625 194.062 6.9375C199.062 8.8125 203.312 11.5 206.812 15C210.354 18.4583 213.083 22.6667 215 27.625C216.958 32.5417 217.938 38.0417 217.938 44.125ZM190.188 45.75C190.188 43.9583 189.917 42.2292 189.375 40.5625C188.875 38.8542 188.125 37.3542 187.125 36.0625C186.125 34.7292 184.875 33.6667 183.375 32.875C181.917 32.0417 180.229 31.625 178.312 31.625C176.354 31.625 174.604 31.9792 173.062 32.6875C171.521 33.3958 170.188 34.375 169.062 35.625C167.979 36.8333 167.146 38.2708 166.562 39.9375C165.979 41.5625 165.688 43.2917 165.688 45.125C165.688 46.875 165.938 48.625 166.438 50.375C166.938 52.125 167.688 53.7083 168.688 55.125C169.688 56.5417 170.917 57.6875 172.375 58.5625C173.875 59.4375 175.604 59.875 177.562 59.875C179.521 59.875 181.271 59.5 182.812 58.75C184.396 57.9583 185.729 56.9167 186.812 55.625C187.896 54.2917 188.729 52.7708 189.312 51.0625C189.896 49.3542 190.188 47.5833 190.188 45.75ZM298.5 11.25L270.875 44.125L296.25 87.125L267.25 92.25L248.25 66.5L247.25 91L221.25 92L223.25 2.5L252.375 4.125L250.125 29.875L268.25 3.75L298.5 11.25ZM371.562 69.75C371.562 73.2083 370.917 76.1875 369.625 78.6875C368.375 81.1875 366.688 83.3125 364.562 85.0625C362.438 86.8125 359.979 88.25 357.188 89.375C354.438 90.4583 351.562 91.3125 348.562 91.9375C345.562 92.5625 342.542 92.9792 339.5 93.1875C336.5 93.3958 333.688 93.5 331.062 93.5C328.479 93.5 325.792 93.3958 323 93.1875C320.25 93.0208 317.5 92.7083 314.75 92.25C312 91.7917 309.292 91.1875 306.625 90.4375C303.958 89.6458 301.438 88.6667 299.062 87.5L298.938 7C301.271 6.04167 303.75 5.1875 306.375 4.4375C309 3.64583 311.667 3 314.375 2.5C317.125 1.95833 319.854 1.5625 322.562 1.3125C325.271 1.02083 327.896 0.875 330.438 0.875C333.396 0.875 336.375 1.0625 339.375 1.4375C342.417 1.8125 345.333 2.4375 348.125 3.3125C350.917 4.1875 353.521 5.33333 355.938 6.75C358.354 8.125 360.458 9.83333 362.25 11.875C364.083 13.9167 365.5 16.2917 366.5 19C367.542 21.7083 368.062 24.8333 368.062 28.375C368.062 30.7083 367.729 32.8958 367.062 34.9375C366.396 36.9792 365.438 38.8125 364.188 40.4375C362.938 42.0625 361.417 43.4583 359.625 44.625C357.833 45.75 355.812 46.5833 353.562 47.125C356.271 47.8333 358.729 48.875 360.938 50.25C363.188 51.625 365.083 53.2917 366.625 55.25C368.208 57.2083 369.417 59.4167 370.25 61.875C371.125 64.3333 371.562 66.9583 371.562 69.75ZM339.812 34.125C339.812 32.9167 339.562 31.8958 339.062 31.0625C338.562 30.1875 337.938 29.4792 337.188 28.9375C336.479 28.3958 335.688 28 334.812 27.75C333.979 27.5 333.229 27.375 332.562 27.375C331.729 27.375 330.917 27.5 330.125 27.75C329.333 28 328.562 28.2917 327.812 28.625L327.438 42.5C328.396 42.5 329.583 42.4167 331 42.25C332.417 42.0833 333.771 41.7292 335.062 41.1875C336.396 40.6042 337.521 39.7708 338.438 38.6875C339.354 37.5625 339.812 36.0417 339.812 34.125ZM330.938 54.5C329.729 54.5 328.562 54.625 327.438 54.875L327.188 69.125C327.812 69.25 328.417 69.375 329 69.5C329.625 69.5833 330.229 69.625 330.812 69.625C331.688 69.625 332.646 69.5417 333.688 69.375C334.729 69.1667 335.708 68.7917 336.625 68.25C337.542 67.6667 338.292 66.8958 338.875 65.9375C339.5 64.9792 339.812 63.7083 339.812 62.125C339.812 60.5417 339.5 59.25 338.875 58.25C338.292 57.25 337.562 56.4792 336.688 55.9375C335.812 55.3542 334.854 54.9792 333.812 54.8125C332.771 54.6042 331.812 54.5 330.938 54.5ZM450.688 44.125C450.688 47.9167 450.25 51.5833 449.375 55.125C448.5 58.625 447.229 61.9167 445.562 65C443.938 68.0833 441.938 70.9167 439.562 73.5C437.229 76.0417 434.583 78.2292 431.625 80.0625C428.708 81.8958 425.521 83.3333 422.062 84.375C418.604 85.375 414.938 85.875 411.062 85.875C407.312 85.875 403.729 85.3958 400.312 84.4375C396.938 83.4792 393.771 82.1458 390.812 80.4375C387.854 78.6875 385.167 76.6042 382.75 74.1875C380.375 71.7292 378.333 69.0208 376.625 66.0625C374.958 63.0625 373.646 59.8542 372.688 56.4375C371.771 53.0208 371.312 49.4583 371.312 45.75C371.312 42.125 371.75 38.5833 372.625 35.125C373.5 31.625 374.75 28.3333 376.375 25.25C378.042 22.1667 380.042 19.3333 382.375 16.75C384.708 14.1667 387.312 11.9375 390.188 10.0625C393.104 8.1875 396.25 6.72917 399.625 5.6875C403 4.64583 406.562 4.125 410.312 4.125C416.354 4.125 421.854 5.0625 426.812 6.9375C431.812 8.8125 436.062 11.5 439.562 15C443.104 18.4583 445.833 22.6667 447.75 27.625C449.708 32.5417 450.688 38.0417 450.688 44.125ZM422.938 45.75C422.938 43.9583 422.667 42.2292 422.125 40.5625C421.625 38.8542 420.875 37.3542 419.875 36.0625C418.875 34.7292 417.625 33.6667 416.125 32.875C414.667 32.0417 412.979 31.625 411.062 31.625C409.104 31.625 407.354 31.9792 405.812 32.6875C404.271 33.3958 402.938 34.375 401.812 35.625C400.729 36.8333 399.896 38.2708 399.312 39.9375C398.729 41.5625 398.438 43.2917 398.438 45.125C398.438 46.875 398.688 48.625 399.188 50.375C399.688 52.125 400.438 53.7083 401.438 55.125C402.438 56.5417 403.667 57.6875 405.125 58.5625C406.625 59.4375 408.354 59.875 410.312 59.875C412.271 59.875 414.021 59.5 415.562 58.75C417.146 57.9583 418.479 56.9167 419.562 55.625C420.646 54.2917 421.479 52.7708 422.062 51.0625C422.646 49.3542 422.938 47.5833 422.938 45.75ZM532.312 44.125C532.312 47.9167 531.875 51.5833 531 55.125C530.125 58.625 528.854 61.9167 527.188 65C525.562 68.0833 523.562 70.9167 521.188 73.5C518.854 76.0417 516.208 78.2292 513.25 80.0625C510.333 81.8958 507.146 83.3333 503.688 84.375C500.229 85.375 496.562 85.875 492.688 85.875C488.938 85.875 485.354 85.3958 481.938 84.4375C478.562 83.4792 475.396 82.1458 472.438 80.4375C469.479 78.6875 466.792 76.6042 464.375 74.1875C462 71.7292 459.958 69.0208 458.25 66.0625C456.583 63.0625 455.271 59.8542 454.312 56.4375C453.396 53.0208 452.938 49.4583 452.938 45.75C452.938 42.125 453.375 38.5833 454.25 35.125C455.125 31.625 456.375 28.3333 458 25.25C459.667 22.1667 461.667 19.3333 464 16.75C466.333 14.1667 468.938 11.9375 471.812 10.0625C474.729 8.1875 477.875 6.72917 481.25 5.6875C484.625 4.64583 488.188 4.125 491.938 4.125C497.979 4.125 503.479 5.0625 508.438 6.9375C513.438 8.8125 517.688 11.5 521.188 15C524.729 18.4583 527.458 22.6667 529.375 27.625C531.333 32.5417 532.312 38.0417 532.312 44.125ZM504.562 45.75C504.562 43.9583 504.292 42.2292 503.75 40.5625C503.25 38.8542 502.5 37.3542 501.5 36.0625C500.5 34.7292 499.25 33.6667 497.75 32.875C496.292 32.0417 494.604 31.625 492.688 31.625C490.729 31.625 488.979 31.9792 487.438 32.6875C485.896 33.3958 484.562 34.375 483.438 35.625C482.354 36.8333 481.521 38.2708 480.938 39.9375C480.354 41.5625 480.062 43.2917 480.062 45.125C480.062 46.875 480.312 48.625 480.812 50.375C481.312 52.125 482.062 53.7083 483.062 55.125C484.062 56.5417 485.292 57.6875 486.75 58.5625C488.25 59.4375 489.979 59.875 491.938 59.875C493.896 59.875 495.646 59.5 497.188 58.75C498.771 57.9583 500.104 56.9167 501.188 55.625C502.271 54.2917 503.104 52.7708 503.688 51.0625C504.271 49.3542 504.562 47.5833 504.562 45.75ZM612.875 11.25L585.25 44.125L610.625 87.125L581.625 92.25L562.625 66.5L561.625 91L535.625 92L537.625 2.5L566.75 4.125L564.5 29.875L582.625 3.75L612.875 11.25Z" fill="black"/>
</svg>
