<svg width="383" height="93" viewBox="0 0 383 93" fill="none" xmlns="http://www.w3.org/2000/svg">
<path d="M111.438 48.625C111.438 54.5833 111.25 60.5208 110.875 66.4375C110.5 72.3542 110.062 78.2917 109.562 84.25L77.4375 85.75C78.3958 78.5 79.25 71.25 80 64C80.7917 56.7083 81.1875 49.4167 81.1875 42.125C81.1875 41.6667 81.1667 40.875 81.125 39.75C81.0833 38.5833 81 37.2708 80.875 35.8125C80.7917 34.3542 80.6458 32.8542 80.4375 31.3125C80.2708 29.7292 80.0208 28.2917 79.6875 27C79.3958 25.6667 79.0208 24.5833 78.5625 23.75C78.1042 22.9167 77.5625 22.5 76.9375 22.5C75.4792 22.5 74.3333 23.0625 73.5 24.1875C72.6667 25.2708 72.0417 26.5833 71.625 28.125C71.25 29.6667 71.0208 31.25 70.9375 32.875C70.8542 34.4583 70.8125 35.75 70.8125 36.75C70.8125 38.5 70.8542 40.25 70.9375 42C71.0208 43.75 71.0625 45.5417 71.0625 47.375C71.0625 53.8333 70.8958 60.2708 70.5625 66.6875C70.2708 73.1042 69.8958 79.5417 69.4375 86L39.8125 87.125C40.7708 79.875 41.6042 72.6458 42.3125 65.4375C43.0625 58.1875 43.4375 50.9167 43.4375 43.625C43.4375 43.1667 43.4167 42.3333 43.375 41.125C43.3333 39.9167 43.25 38.5625 43.125 37.0625C43.0417 35.5625 42.8958 34 42.6875 32.375C42.4792 30.75 42.2083 29.2708 41.875 27.9375C41.5833 26.5625 41.2083 25.4375 40.75 24.5625C40.2917 23.6875 39.7292 23.25 39.0625 23.25C38.0208 23.25 37.1458 23.6667 36.4375 24.5C35.7292 25.2917 35.1458 26.3333 34.6875 27.625C34.2708 28.9167 33.9375 30.3542 33.6875 31.9375C33.4792 33.4792 33.3125 35 33.1875 36.5C33.1042 38 33.0417 39.3958 33 40.6875C33 41.9375 32.9792 42.875 32.9375 43.5L31.5625 89.125H0.0625C0.729167 82.0833 1.39583 75.0208 2.0625 67.9375C2.77083 60.8542 3.375 53.7917 3.875 46.75C4.41667 39.6667 4.85417 32.5833 5.1875 25.5C5.52083 18.4167 5.6875 11.3333 5.6875 4.25L35.4375 3L35.3125 10.25C36.2292 9.08333 37.2708 7.91667 38.4375 6.75C39.6042 5.54167 40.8333 4.47917 42.125 3.5625C43.4583 2.60417 44.8542 1.83333 46.3125 1.25C47.8125 0.666667 49.3542 0.375 50.9375 0.375C52.9792 0.375 54.8125 0.541667 56.4375 0.875C58.0625 1.16667 59.5208 1.6875 60.8125 2.4375C62.1458 3.1875 63.3125 4.22917 64.3125 5.5625C65.3125 6.85417 66.1875 8.5 66.9375 10.5C68.2708 9.04167 69.6042 7.6875 70.9375 6.4375C72.3125 5.1875 73.75 4.125 75.25 3.25C76.75 2.33333 78.375 1.625 80.125 1.125C81.875 0.625 83.8125 0.375 85.9375 0.375C89.9792 0.375 93.4167 1.16667 96.25 2.75C99.0833 4.29167 101.438 6.35417 103.312 8.9375C105.229 11.5208 106.708 14.4792 107.75 17.8125C108.833 21.1458 109.646 24.6042 110.188 28.1875C110.729 31.7708 111.062 35.3333 111.188 38.875C111.354 42.4167 111.438 45.6667 111.438 48.625ZM194.438 43.125C194.438 46.9167 194 50.5833 193.125 54.125C192.25 57.625 190.979 60.9167 189.312 64C187.688 67.0833 185.688 69.9167 183.312 72.5C180.979 75.0417 178.333 77.2292 175.375 79.0625C172.458 80.8958 169.271 82.3333 165.812 83.375C162.354 84.375 158.688 84.875 154.812 84.875C151.062 84.875 147.479 84.3958 144.062 83.4375C140.688 82.4792 137.521 81.1458 134.562 79.4375C131.604 77.6875 128.917 75.6042 126.5 73.1875C124.125 70.7292 122.083 68.0208 120.375 65.0625C118.708 62.0625 117.396 58.8542 116.438 55.4375C115.521 52.0208 115.062 48.4583 115.062 44.75C115.062 41.125 115.5 37.5833 116.375 34.125C117.25 30.625 118.5 27.3333 120.125 24.25C121.792 21.1667 123.792 18.3333 126.125 15.75C128.458 13.1667 131.062 10.9375 133.938 9.0625C136.854 7.1875 140 5.72917 143.375 4.6875C146.75 3.64583 150.312 3.125 154.062 3.125C160.104 3.125 165.604 4.0625 170.562 5.9375C175.562 7.8125 179.812 10.5 183.312 14C186.854 17.4583 189.583 21.6667 191.5 26.625C193.458 31.5417 194.438 37.0417 194.438 43.125ZM166.688 44.75C166.688 42.9583 166.417 41.2292 165.875 39.5625C165.375 37.8542 164.625 36.3542 163.625 35.0625C162.625 33.7292 161.375 32.6667 159.875 31.875C158.417 31.0417 156.729 30.625 154.812 30.625C152.854 30.625 151.104 30.9792 149.562 31.6875C148.021 32.3958 146.688 33.375 145.562 34.625C144.479 35.8333 143.646 37.2708 143.062 38.9375C142.479 40.5625 142.188 42.2917 142.188 44.125C142.188 45.875 142.438 47.625 142.938 49.375C143.438 51.125 144.188 52.7083 145.188 54.125C146.188 55.5417 147.417 56.6875 148.875 57.5625C150.375 58.4375 152.104 58.875 154.062 58.875C156.021 58.875 157.771 58.5 159.312 57.75C160.896 56.9583 162.229 55.9167 163.312 54.625C164.396 53.2917 165.229 51.7708 165.812 50.0625C166.396 48.3542 166.688 46.5833 166.688 44.75ZM273.125 3.375L250.25 87.875L219.25 89.625L191.125 8L220.75 5.25L232.75 52.75L244.375 1.5L273.125 3.375ZM307.688 3L303.312 88.125L276.938 89.5L274.438 4.75L307.688 3ZM382.562 40.5C382.562 44.125 382.312 47.75 381.812 51.375C374.688 51.8333 367.604 52.5833 360.562 53.625C353.521 54.625 346.479 55.625 339.438 56.625C340.521 59.625 342.208 62.0208 344.5 63.8125C346.833 65.6042 349.604 66.5 352.812 66.5C354.479 66.5 356.292 66.1875 358.25 65.5625C360.25 64.9375 362.229 64.1667 364.188 63.25C366.146 62.2917 368.021 61.2708 369.812 60.1875C371.604 59.1042 373.146 58.125 374.438 57.25L371.438 85.625C369.812 86.875 368.042 87.9375 366.125 88.8125C364.25 89.6875 362.292 90.3958 360.25 90.9375C358.208 91.4792 356.146 91.875 354.062 92.125C351.979 92.375 349.938 92.5 347.938 92.5C343.812 92.5 340.042 91.9375 336.625 90.8125C333.208 89.6875 330.104 88.125 327.312 86.125C324.562 84.0833 322.146 81.6875 320.062 78.9375C317.979 76.1875 316.25 73.1875 314.875 69.9375C313.5 66.6875 312.458 63.25 311.75 59.625C311.042 56 310.688 52.3333 310.688 48.625C310.688 44.75 311.042 40.875 311.75 37C312.458 33.125 313.521 29.3958 314.938 25.8125C316.396 22.2292 318.208 18.9167 320.375 15.875C322.583 12.7917 325.146 10.1042 328.062 7.8125C330.979 5.52083 334.271 3.72917 337.938 2.4375C341.646 1.14583 345.729 0.5 350.188 0.5C353.896 0.5 357.271 1.02083 360.312 2.0625C363.396 3.0625 366.125 4.47917 368.5 6.3125C370.917 8.10417 373 10.25 374.75 12.75C376.542 15.25 378 18 379.125 21C380.292 23.9583 381.146 27.1042 381.688 30.4375C382.271 33.7292 382.562 37.0833 382.562 40.5ZM357.562 37.25C357.562 36.0833 357.438 34.8958 357.188 33.6875C356.938 32.4375 356.521 31.3125 355.938 30.3125C355.396 29.3125 354.667 28.5 353.75 27.875C352.833 27.2083 351.688 26.875 350.312 26.875C348.646 26.875 347.167 27.3333 345.875 28.25C344.625 29.125 343.542 30.25 342.625 31.625C341.708 32.9583 340.958 34.4167 340.375 36C339.792 37.5833 339.354 39.0417 339.062 40.375L357.562 38.625V37.25Z" fill="black"/>
</svg>
