<svg width="714" height="93" viewBox="0 0 714 93" fill="none" xmlns="http://www.w3.org/2000/svg">
<path d="M84 86.625L53 90.625L49.25 76.5H35L31.875 90.625L0 87.5L24.875 4.25L59.625 2.5L84 86.625ZM47 57.375L42.25 35.625L37.625 57.375H47ZM156.125 42.375C156.125 48.2083 155.375 53.4375 153.875 58.0625C152.375 62.6875 150.271 66.7917 147.562 70.375C144.896 73.9167 141.708 76.9375 138 79.4375C134.292 81.9375 130.229 84 125.812 85.625C121.396 87.2083 116.688 88.375 111.688 89.125C106.729 89.875 101.625 90.25 96.375 90.25C94.4167 90.25 92.5 90.2083 90.625 90.125C88.75 90 86.8333 89.8333 84.875 89.625L86.625 8.25C91.2083 6.79167 95.9167 5.77083 100.75 5.1875C105.625 4.5625 110.458 4.25 115.25 4.25C121.208 4.25 126.688 5.08333 131.688 6.75C136.688 8.41667 141 10.875 144.625 14.125C148.25 17.3333 151.062 21.3125 153.062 26.0625C155.104 30.7708 156.125 36.2083 156.125 42.375ZM113.625 66.375C116.125 66 118.396 65.25 120.438 64.125C122.521 62.9583 124.312 61.5417 125.812 59.875C127.312 58.1667 128.458 56.25 129.25 54.125C130.083 51.9583 130.5 49.6667 130.5 47.25C130.5 44.875 130.25 42.6667 129.75 40.625C129.25 38.5417 128.438 36.75 127.312 35.25C126.188 33.7083 124.708 32.5 122.875 31.625C121.042 30.7083 118.792 30.2083 116.125 30.125L113.625 66.375ZM268.562 49.625C268.562 55.5833 268.375 61.5208 268 67.4375C267.625 73.3542 267.188 79.2917 266.688 85.25L234.562 86.75C235.521 79.5 236.375 72.25 237.125 65C237.917 57.7083 238.312 50.4167 238.312 43.125C238.312 42.6667 238.292 41.875 238.25 40.75C238.208 39.5833 238.125 38.2708 238 36.8125C237.917 35.3542 237.771 33.8542 237.562 32.3125C237.396 30.7292 237.146 29.2917 236.812 28C236.521 26.6667 236.146 25.5833 235.688 24.75C235.229 23.9167 234.688 23.5 234.062 23.5C232.604 23.5 231.458 24.0625 230.625 25.1875C229.792 26.2708 229.167 27.5833 228.75 29.125C228.375 30.6667 228.146 32.25 228.062 33.875C227.979 35.4583 227.938 36.75 227.938 37.75C227.938 39.5 227.979 41.25 228.062 43C228.146 44.75 228.188 46.5417 228.188 48.375C228.188 54.8333 228.021 61.2708 227.688 67.6875C227.396 74.1042 227.021 80.5417 226.562 87L196.938 88.125C197.896 80.875 198.729 73.6458 199.438 66.4375C200.188 59.1875 200.562 51.9167 200.562 44.625C200.562 44.1667 200.542 43.3333 200.5 42.125C200.458 40.9167 200.375 39.5625 200.25 38.0625C200.167 36.5625 200.021 35 199.812 33.375C199.604 31.75 199.333 30.2708 199 28.9375C198.708 27.5625 198.333 26.4375 197.875 25.5625C197.417 24.6875 196.854 24.25 196.188 24.25C195.146 24.25 194.271 24.6667 193.562 25.5C192.854 26.2917 192.271 27.3333 191.812 28.625C191.396 29.9167 191.062 31.3542 190.812 32.9375C190.604 34.4792 190.438 36 190.312 37.5C190.229 39 190.167 40.3958 190.125 41.6875C190.125 42.9375 190.104 43.875 190.062 44.5L188.688 90.125H157.188C157.854 83.0833 158.521 76.0208 159.188 68.9375C159.896 61.8542 160.5 54.7917 161 47.75C161.542 40.6667 161.979 33.5833 162.312 26.5C162.646 19.4167 162.812 12.3333 162.812 5.25L192.562 4L192.438 11.25C193.354 10.0833 194.396 8.91667 195.562 7.75C196.729 6.54167 197.958 5.47917 199.25 4.5625C200.583 3.60417 201.979 2.83333 203.438 2.25C204.938 1.66667 206.479 1.375 208.062 1.375C210.104 1.375 211.938 1.54167 213.562 1.875C215.188 2.16667 216.646 2.6875 217.938 3.4375C219.271 4.1875 220.438 5.22917 221.438 6.5625C222.438 7.85417 223.312 9.5 224.062 11.5C225.396 10.0417 226.729 8.6875 228.062 7.4375C229.438 6.1875 230.875 5.125 232.375 4.25C233.875 3.33333 235.5 2.625 237.25 2.125C239 1.625 240.938 1.375 243.062 1.375C247.104 1.375 250.542 2.16667 253.375 3.75C256.208 5.29167 258.562 7.35417 260.438 9.9375C262.354 12.5208 263.833 15.4792 264.875 18.8125C265.958 22.1458 266.771 25.6042 267.312 29.1875C267.854 32.7708 268.188 36.3333 268.312 39.875C268.479 43.4167 268.562 46.6667 268.562 49.625ZM306.938 4L302.562 89.125L276.188 90.5L273.688 5.75L306.938 4ZM376.125 60C376.125 65.7083 375.125 70.6458 373.125 74.8125C371.167 78.9375 368.458 82.3542 365 85.0625C361.583 87.7292 357.562 89.7083 352.938 91C348.354 92.25 343.417 92.875 338.125 92.875C336.083 92.875 333.833 92.6042 331.375 92.0625C328.958 91.5208 326.5 90.8542 324 90.0625C321.5 89.2292 319.083 88.3542 316.75 87.4375C314.458 86.4792 312.417 85.5833 310.625 84.75L313.375 60.25C316.917 62.375 320.833 64 325.125 65.125C329.458 66.2083 333.708 66.75 337.875 66.75C338.667 66.75 339.625 66.7292 340.75 66.6875C341.875 66.6042 342.938 66.4167 343.938 66.125C344.979 65.7917 345.854 65.3125 346.562 64.6875C347.271 64.0625 347.625 63.1667 347.625 62C347.625 61.2083 347.375 60.5417 346.875 60C346.375 59.4167 345.729 58.9583 344.938 58.625C344.146 58.25 343.25 57.9792 342.25 57.8125C341.25 57.6042 340.271 57.4583 339.312 57.375C338.354 57.2917 337.458 57.25 336.625 57.25C335.792 57.25 335.125 57.25 334.625 57.25C331.042 57.25 327.771 56.6875 324.812 55.5625C321.896 54.4375 319.375 52.8542 317.25 50.8125C315.167 48.7292 313.542 46.2292 312.375 43.3125C311.208 40.3542 310.625 37.0833 310.625 33.5C310.625 28.5833 311.604 24.1875 313.562 20.3125C315.562 16.3958 318.208 13.0833 321.5 10.375C324.833 7.625 328.646 5.52083 332.938 4.0625C337.229 2.60417 341.667 1.875 346.25 1.875C348.292 1.875 350.396 1.95833 352.562 2.125C354.729 2.25 356.875 2.5 359 2.875C361.167 3.25 363.271 3.72917 365.312 4.3125C367.354 4.89583 369.292 5.625 371.125 6.5L368.75 31.875C365.917 30.9167 362.938 30.125 359.812 29.5C356.729 28.8333 353.708 28.5 350.75 28.5C350.208 28.5 349.5 28.5208 348.625 28.5625C347.792 28.5625 346.896 28.625 345.938 28.75C345.021 28.8333 344.083 28.9792 343.125 29.1875C342.167 29.3958 341.312 29.6875 340.562 30.0625C339.812 30.3958 339.208 30.8542 338.75 31.4375C338.292 32.0208 338.083 32.7083 338.125 33.5C338.167 34.4167 338.5 35.125 339.125 35.625C339.792 36.125 340.625 36.5 341.625 36.75C342.667 36.9583 343.792 37.0625 345 37.0625C346.25 37.0625 347.479 37.0417 348.688 37C349.896 36.9167 351.021 36.8542 352.062 36.8125C353.104 36.7292 353.958 36.7083 354.625 36.75C357.958 36.9583 360.958 37.6667 363.625 38.875C366.292 40.0833 368.542 41.6875 370.375 43.6875C372.25 45.6875 373.667 48.0833 374.625 50.875C375.625 53.625 376.125 56.6667 376.125 60ZM443.625 60C443.625 65.7083 442.625 70.6458 440.625 74.8125C438.667 78.9375 435.958 82.3542 432.5 85.0625C429.083 87.7292 425.062 89.7083 420.438 91C415.854 92.25 410.917 92.875 405.625 92.875C403.583 92.875 401.333 92.6042 398.875 92.0625C396.458 91.5208 394 90.8542 391.5 90.0625C389 89.2292 386.583 88.3542 384.25 87.4375C381.958 86.4792 379.917 85.5833 378.125 84.75L380.875 60.25C384.417 62.375 388.333 64 392.625 65.125C396.958 66.2083 401.208 66.75 405.375 66.75C406.167 66.75 407.125 66.7292 408.25 66.6875C409.375 66.6042 410.438 66.4167 411.438 66.125C412.479 65.7917 413.354 65.3125 414.062 64.6875C414.771 64.0625 415.125 63.1667 415.125 62C415.125 61.2083 414.875 60.5417 414.375 60C413.875 59.4167 413.229 58.9583 412.438 58.625C411.646 58.25 410.75 57.9792 409.75 57.8125C408.75 57.6042 407.771 57.4583 406.812 57.375C405.854 57.2917 404.958 57.25 404.125 57.25C403.292 57.25 402.625 57.25 402.125 57.25C398.542 57.25 395.271 56.6875 392.312 55.5625C389.396 54.4375 386.875 52.8542 384.75 50.8125C382.667 48.7292 381.042 46.2292 379.875 43.3125C378.708 40.3542 378.125 37.0833 378.125 33.5C378.125 28.5833 379.104 24.1875 381.062 20.3125C383.062 16.3958 385.708 13.0833 389 10.375C392.333 7.625 396.146 5.52083 400.438 4.0625C404.729 2.60417 409.167 1.875 413.75 1.875C415.792 1.875 417.896 1.95833 420.062 2.125C422.229 2.25 424.375 2.5 426.5 2.875C428.667 3.25 430.771 3.72917 432.812 4.3125C434.854 4.89583 436.792 5.625 438.625 6.5L436.25 31.875C433.417 30.9167 430.438 30.125 427.312 29.5C424.229 28.8333 421.208 28.5 418.25 28.5C417.708 28.5 417 28.5208 416.125 28.5625C415.292 28.5625 414.396 28.625 413.438 28.75C412.521 28.8333 411.583 28.9792 410.625 29.1875C409.667 29.3958 408.812 29.6875 408.062 30.0625C407.312 30.3958 406.708 30.8542 406.25 31.4375C405.792 32.0208 405.583 32.7083 405.625 33.5C405.667 34.4167 406 35.125 406.625 35.625C407.292 36.125 408.125 36.5 409.125 36.75C410.167 36.9583 411.292 37.0625 412.5 37.0625C413.75 37.0625 414.979 37.0417 416.188 37C417.396 36.9167 418.521 36.8542 419.562 36.8125C420.604 36.7292 421.458 36.7083 422.125 36.75C425.458 36.9583 428.458 37.6667 431.125 38.875C433.792 40.0833 436.042 41.6875 437.875 43.6875C439.75 45.6875 441.167 48.0833 442.125 50.875C443.125 53.625 443.625 56.6667 443.625 60ZM480.312 4L475.938 89.125L449.562 90.5L447.062 5.75L480.312 4ZM562.062 44.125C562.062 47.9167 561.625 51.5833 560.75 55.125C559.875 58.625 558.604 61.9167 556.938 65C555.312 68.0833 553.312 70.9167 550.938 73.5C548.604 76.0417 545.958 78.2292 543 80.0625C540.083 81.8958 536.896 83.3333 533.438 84.375C529.979 85.375 526.312 85.875 522.438 85.875C518.688 85.875 515.104 85.3958 511.688 84.4375C508.312 83.4792 505.146 82.1458 502.188 80.4375C499.229 78.6875 496.542 76.6042 494.125 74.1875C491.75 71.7292 489.708 69.0208 488 66.0625C486.333 63.0625 485.021 59.8542 484.062 56.4375C483.146 53.0208 482.688 49.4583 482.688 45.75C482.688 42.125 483.125 38.5833 484 35.125C484.875 31.625 486.125 28.3333 487.75 25.25C489.417 22.1667 491.417 19.3333 493.75 16.75C496.083 14.1667 498.688 11.9375 501.562 10.0625C504.479 8.1875 507.625 6.72917 511 5.6875C514.375 4.64583 517.938 4.125 521.688 4.125C527.729 4.125 533.229 5.0625 538.188 6.9375C543.188 8.8125 547.438 11.5 550.938 15C554.479 18.4583 557.208 22.6667 559.125 27.625C561.083 32.5417 562.062 38.0417 562.062 44.125ZM534.312 45.75C534.312 43.9583 534.042 42.2292 533.5 40.5625C533 38.8542 532.25 37.3542 531.25 36.0625C530.25 34.7292 529 33.6667 527.5 32.875C526.042 32.0417 524.354 31.625 522.438 31.625C520.479 31.625 518.729 31.9792 517.188 32.6875C515.646 33.3958 514.312 34.375 513.188 35.625C512.104 36.8333 511.271 38.2708 510.688 39.9375C510.104 41.5625 509.812 43.2917 509.812 45.125C509.812 46.875 510.062 48.625 510.562 50.375C511.062 52.125 511.812 53.7083 512.812 55.125C513.812 56.5417 515.042 57.6875 516.5 58.5625C518 59.4375 519.729 59.875 521.688 59.875C523.646 59.875 525.396 59.5 526.938 58.75C528.521 57.9583 529.854 56.9167 530.938 55.625C532.021 54.2917 532.854 52.7708 533.438 51.0625C534.021 49.3542 534.312 47.5833 534.312 45.75ZM643.25 60.375C643.25 65.0833 643.188 69.75 643.062 74.375C642.979 78.9583 642.833 83.5833 642.625 88.25L606.625 87.625C607.875 80.25 608.958 72.8958 609.875 65.5625C610.792 58.1875 611.25 50.75 611.25 43.25C611.25 42.7083 611.229 41.8333 611.188 40.625C611.146 39.4167 611.062 38.0625 610.938 36.5625C610.812 35.0208 610.625 33.4583 610.375 31.875C610.167 30.25 609.854 28.7708 609.438 27.4375C609.062 26.1042 608.583 25.0208 608 24.1875C607.458 23.3125 606.792 22.875 606 22.875C604.583 22.875 603.375 23.2917 602.375 24.125C601.417 24.9583 600.604 26.0417 599.938 27.375C599.312 28.6667 598.812 30.125 598.438 31.75C598.062 33.375 597.771 35 597.562 36.625C597.396 38.25 597.271 39.7917 597.188 41.25C597.146 42.6667 597.125 43.8333 597.125 44.75C596.917 52.125 596.75 59.4583 596.625 66.75C596.5 74 596.333 81.3333 596.125 88.75L564.25 90.125C565.083 75.4167 565.875 60.7917 566.625 46.25C567.417 31.7083 568.042 17.0833 568.5 2.375L598 0.875L597.75 10.875C598.917 9.45833 600.167 8.125 601.5 6.875C602.875 5.625 604.333 4.5625 605.875 3.6875C607.417 2.77083 609.042 2.0625 610.75 1.5625C612.5 1.02083 614.333 0.75 616.25 0.75C619.792 0.75 622.896 1.33333 625.562 2.5C628.229 3.66667 630.521 5.25 632.438 7.25C634.354 9.25 635.958 11.625 637.25 14.375C638.542 17.0833 639.583 19.9792 640.375 23.0625C641.167 26.1458 641.771 29.375 642.188 32.75C642.604 36.0833 642.875 39.375 643 42.625C643.167 45.875 643.25 49.0208 643.25 52.0625C643.25 55.1042 643.25 57.875 643.25 60.375ZM713.25 60C713.25 65.7083 712.25 70.6458 710.25 74.8125C708.292 78.9375 705.583 82.3542 702.125 85.0625C698.708 87.7292 694.688 89.7083 690.062 91C685.479 92.25 680.542 92.875 675.25 92.875C673.208 92.875 670.958 92.6042 668.5 92.0625C666.083 91.5208 663.625 90.8542 661.125 90.0625C658.625 89.2292 656.208 88.3542 653.875 87.4375C651.583 86.4792 649.542 85.5833 647.75 84.75L650.5 60.25C654.042 62.375 657.958 64 662.25 65.125C666.583 66.2083 670.833 66.75 675 66.75C675.792 66.75 676.75 66.7292 677.875 66.6875C679 66.6042 680.062 66.4167 681.062 66.125C682.104 65.7917 682.979 65.3125 683.688 64.6875C684.396 64.0625 684.75 63.1667 684.75 62C684.75 61.2083 684.5 60.5417 684 60C683.5 59.4167 682.854 58.9583 682.062 58.625C681.271 58.25 680.375 57.9792 679.375 57.8125C678.375 57.6042 677.396 57.4583 676.438 57.375C675.479 57.2917 674.583 57.25 673.75 57.25C672.917 57.25 672.25 57.25 671.75 57.25C668.167 57.25 664.896 56.6875 661.938 55.5625C659.021 54.4375 656.5 52.8542 654.375 50.8125C652.292 48.7292 650.667 46.2292 649.5 43.3125C648.333 40.3542 647.75 37.0833 647.75 33.5C647.75 28.5833 648.729 24.1875 650.688 20.3125C652.688 16.3958 655.333 13.0833 658.625 10.375C661.958 7.625 665.771 5.52083 670.062 4.0625C674.354 2.60417 678.792 1.875 683.375 1.875C685.417 1.875 687.521 1.95833 689.688 2.125C691.854 2.25 694 2.5 696.125 2.875C698.292 3.25 700.396 3.72917 702.438 4.3125C704.479 4.89583 706.417 5.625 708.25 6.5L705.875 31.875C703.042 30.9167 700.062 30.125 696.938 29.5C693.854 28.8333 690.833 28.5 687.875 28.5C687.333 28.5 686.625 28.5208 685.75 28.5625C684.917 28.5625 684.021 28.625 683.062 28.75C682.146 28.8333 681.208 28.9792 680.25 29.1875C679.292 29.3958 678.438 29.6875 677.688 30.0625C676.938 30.3958 676.333 30.8542 675.875 31.4375C675.417 32.0208 675.208 32.7083 675.25 33.5C675.292 34.4167 675.625 35.125 676.25 35.625C676.917 36.125 677.75 36.5 678.75 36.75C679.792 36.9583 680.917 37.0625 682.125 37.0625C683.375 37.0625 684.604 37.0417 685.812 37C687.021 36.9167 688.146 36.8542 689.188 36.8125C690.229 36.7292 691.083 36.7083 691.75 36.75C695.083 36.9583 698.083 37.6667 700.75 38.875C703.417 40.0833 705.667 41.6875 707.5 43.6875C709.375 45.6875 710.792 48.0833 711.75 50.875C712.75 53.625 713.25 56.6667 713.25 60Z" fill="black"/>
</svg>
