<svg width="607" height="94" viewBox="0 0 607 94" fill="none" xmlns="http://www.w3.org/2000/svg">
<path d="M96.8125 0.875L91.0625 92.625L62.5625 93.875L62.8125 45.5L49.9375 84.5H38.9375L29.0625 49.625L28.9375 90.125L0.0625 91L1.3125 4.625L33.4375 3.375L46.1875 44.75L63.1875 0.875H96.8125ZM170.562 41.5C170.562 45.125 170.312 48.75 169.812 52.375C162.688 52.8333 155.604 53.5833 148.562 54.625C141.521 55.625 134.479 56.625 127.438 57.625C128.521 60.625 130.208 63.0208 132.5 64.8125C134.833 66.6042 137.604 67.5 140.812 67.5C142.479 67.5 144.292 67.1875 146.25 66.5625C148.25 65.9375 150.229 65.1667 152.188 64.25C154.146 63.2917 156.021 62.2708 157.812 61.1875C159.604 60.1042 161.146 59.125 162.438 58.25L159.438 86.625C157.812 87.875 156.042 88.9375 154.125 89.8125C152.25 90.6875 150.292 91.3958 148.25 91.9375C146.208 92.4792 144.146 92.875 142.062 93.125C139.979 93.375 137.938 93.5 135.938 93.5C131.812 93.5 128.042 92.9375 124.625 91.8125C121.208 90.6875 118.104 89.125 115.312 87.125C112.562 85.0833 110.146 82.6875 108.062 79.9375C105.979 77.1875 104.25 74.1875 102.875 70.9375C101.5 67.6875 100.458 64.25 99.75 60.625C99.0417 57 98.6875 53.3333 98.6875 49.625C98.6875 45.75 99.0417 41.875 99.75 38C100.458 34.125 101.521 30.3958 102.938 26.8125C104.396 23.2292 106.208 19.9167 108.375 16.875C110.583 13.7917 113.146 11.1042 116.062 8.8125C118.979 6.52083 122.271 4.72917 125.938 3.4375C129.646 2.14583 133.729 1.5 138.188 1.5C141.896 1.5 145.271 2.02083 148.312 3.0625C151.396 4.0625 154.125 5.47917 156.5 7.3125C158.917 9.10417 161 11.25 162.75 13.75C164.542 16.25 166 19 167.125 22C168.292 24.9583 169.146 28.1042 169.688 31.4375C170.271 34.7292 170.562 38.0833 170.562 41.5ZM145.562 38.25C145.562 37.0833 145.438 35.8958 145.188 34.6875C144.938 33.4375 144.521 32.3125 143.938 31.3125C143.396 30.3125 142.667 29.5 141.75 28.875C140.833 28.2083 139.688 27.875 138.312 27.875C136.646 27.875 135.167 28.3333 133.875 29.25C132.625 30.125 131.542 31.25 130.625 32.625C129.708 33.9583 128.958 35.4167 128.375 37C127.792 38.5833 127.354 40.0417 127.062 41.375L145.562 39.625V38.25ZM238.75 60C238.75 65.7083 237.75 70.6458 235.75 74.8125C233.792 78.9375 231.083 82.3542 227.625 85.0625C224.208 87.7292 220.188 89.7083 215.562 91C210.979 92.25 206.042 92.875 200.75 92.875C198.708 92.875 196.458 92.6042 194 92.0625C191.583 91.5208 189.125 90.8542 186.625 90.0625C184.125 89.2292 181.708 88.3542 179.375 87.4375C177.083 86.4792 175.042 85.5833 173.25 84.75L176 60.25C179.542 62.375 183.458 64 187.75 65.125C192.083 66.2083 196.333 66.75 200.5 66.75C201.292 66.75 202.25 66.7292 203.375 66.6875C204.5 66.6042 205.562 66.4167 206.562 66.125C207.604 65.7917 208.479 65.3125 209.188 64.6875C209.896 64.0625 210.25 63.1667 210.25 62C210.25 61.2083 210 60.5417 209.5 60C209 59.4167 208.354 58.9583 207.562 58.625C206.771 58.25 205.875 57.9792 204.875 57.8125C203.875 57.6042 202.896 57.4583 201.938 57.375C200.979 57.2917 200.083 57.25 199.25 57.25C198.417 57.25 197.75 57.25 197.25 57.25C193.667 57.25 190.396 56.6875 187.438 55.5625C184.521 54.4375 182 52.8542 179.875 50.8125C177.792 48.7292 176.167 46.2292 175 43.3125C173.833 40.3542 173.25 37.0833 173.25 33.5C173.25 28.5833 174.229 24.1875 176.188 20.3125C178.188 16.3958 180.833 13.0833 184.125 10.375C187.458 7.625 191.271 5.52083 195.562 4.0625C199.854 2.60417 204.292 1.875 208.875 1.875C210.917 1.875 213.021 1.95833 215.188 2.125C217.354 2.25 219.5 2.5 221.625 2.875C223.792 3.25 225.896 3.72917 227.938 4.3125C229.979 4.89583 231.917 5.625 233.75 6.5L231.375 31.875C228.542 30.9167 225.562 30.125 222.438 29.5C219.354 28.8333 216.333 28.5 213.375 28.5C212.833 28.5 212.125 28.5208 211.25 28.5625C210.417 28.5625 209.521 28.625 208.562 28.75C207.646 28.8333 206.708 28.9792 205.75 29.1875C204.792 29.3958 203.938 29.6875 203.188 30.0625C202.438 30.3958 201.833 30.8542 201.375 31.4375C200.917 32.0208 200.708 32.7083 200.75 33.5C200.792 34.4167 201.125 35.125 201.75 35.625C202.417 36.125 203.25 36.5 204.25 36.75C205.292 36.9583 206.417 37.0625 207.625 37.0625C208.875 37.0625 210.104 37.0417 211.312 37C212.521 36.9167 213.646 36.8542 214.688 36.8125C215.729 36.7292 216.583 36.7083 217.25 36.75C220.583 36.9583 223.583 37.6667 226.25 38.875C228.917 40.0833 231.167 41.6875 233 43.6875C234.875 45.6875 236.292 48.0833 237.25 50.875C238.25 53.625 238.75 56.6667 238.75 60ZM306.25 60C306.25 65.7083 305.25 70.6458 303.25 74.8125C301.292 78.9375 298.583 82.3542 295.125 85.0625C291.708 87.7292 287.688 89.7083 283.062 91C278.479 92.25 273.542 92.875 268.25 92.875C266.208 92.875 263.958 92.6042 261.5 92.0625C259.083 91.5208 256.625 90.8542 254.125 90.0625C251.625 89.2292 249.208 88.3542 246.875 87.4375C244.583 86.4792 242.542 85.5833 240.75 84.75L243.5 60.25C247.042 62.375 250.958 64 255.25 65.125C259.583 66.2083 263.833 66.75 268 66.75C268.792 66.75 269.75 66.7292 270.875 66.6875C272 66.6042 273.062 66.4167 274.062 66.125C275.104 65.7917 275.979 65.3125 276.688 64.6875C277.396 64.0625 277.75 63.1667 277.75 62C277.75 61.2083 277.5 60.5417 277 60C276.5 59.4167 275.854 58.9583 275.062 58.625C274.271 58.25 273.375 57.9792 272.375 57.8125C271.375 57.6042 270.396 57.4583 269.438 57.375C268.479 57.2917 267.583 57.25 266.75 57.25C265.917 57.25 265.25 57.25 264.75 57.25C261.167 57.25 257.896 56.6875 254.938 55.5625C252.021 54.4375 249.5 52.8542 247.375 50.8125C245.292 48.7292 243.667 46.2292 242.5 43.3125C241.333 40.3542 240.75 37.0833 240.75 33.5C240.75 28.5833 241.729 24.1875 243.688 20.3125C245.688 16.3958 248.333 13.0833 251.625 10.375C254.958 7.625 258.771 5.52083 263.062 4.0625C267.354 2.60417 271.792 1.875 276.375 1.875C278.417 1.875 280.521 1.95833 282.688 2.125C284.854 2.25 287 2.5 289.125 2.875C291.292 3.25 293.396 3.72917 295.438 4.3125C297.479 4.89583 299.417 5.625 301.25 6.5L298.875 31.875C296.042 30.9167 293.062 30.125 289.938 29.5C286.854 28.8333 283.833 28.5 280.875 28.5C280.333 28.5 279.625 28.5208 278.75 28.5625C277.917 28.5625 277.021 28.625 276.062 28.75C275.146 28.8333 274.208 28.9792 273.25 29.1875C272.292 29.3958 271.438 29.6875 270.688 30.0625C269.938 30.3958 269.333 30.8542 268.875 31.4375C268.417 32.0208 268.208 32.7083 268.25 33.5C268.292 34.4167 268.625 35.125 269.25 35.625C269.917 36.125 270.75 36.5 271.75 36.75C272.792 36.9583 273.917 37.0625 275.125 37.0625C276.375 37.0625 277.604 37.0417 278.812 37C280.021 36.9167 281.146 36.8542 282.188 36.8125C283.229 36.7292 284.083 36.7083 284.75 36.75C288.083 36.9583 291.083 37.6667 293.75 38.875C296.417 40.0833 298.667 41.6875 300.5 43.6875C302.375 45.6875 303.792 48.0833 304.75 50.875C305.75 53.625 306.25 56.6667 306.25 60ZM388.25 86.625L357.25 90.625L353.5 76.5H339.25L336.125 90.625L304.25 87.5L329.125 4.25L363.875 2.5L388.25 86.625ZM351.25 57.375L346.5 35.625L341.875 57.375H351.25ZM463.5 78C461.542 80.4583 459.125 82.6042 456.25 84.4375C453.375 86.2708 450.292 87.7917 447 89C443.708 90.2083 440.333 91.125 436.875 91.75C433.417 92.3333 430.125 92.625 427 92.625C420.958 92.625 415.396 91.6042 410.312 89.5625C405.229 87.5208 400.833 84.6875 397.125 81.0625C393.458 77.3958 390.583 73.0417 388.5 68C386.417 62.9583 385.375 57.4583 385.375 51.5C385.375 46.9583 385.896 42.5417 386.938 38.25C387.979 33.9583 389.458 29.9375 391.375 26.1875C393.333 22.4375 395.708 19 398.5 15.875C401.292 12.75 404.458 10.0625 408 7.8125C411.542 5.5625 415.417 3.83333 419.625 2.625C423.875 1.375 428.375 0.75 433.125 0.75C434.917 0.75 436.833 0.833333 438.875 1C440.917 1.125 442.938 1.375 444.938 1.75C446.979 2.08333 448.958 2.5625 450.875 3.1875C452.792 3.8125 454.542 4.58333 456.125 5.5L454.375 29.375C452.042 28.5 449.625 27.9167 447.125 27.625C444.667 27.2917 442.25 27.125 439.875 27.125C436.542 27.125 433.417 27.5833 430.5 28.5C427.625 29.375 425.104 30.6875 422.938 32.4375C420.812 34.1875 419.125 36.375 417.875 39C416.625 41.625 416 44.6667 416 48.125C416 50.2917 416.292 52.3958 416.875 54.4375C417.458 56.4375 418.333 58.2292 419.5 59.8125C420.708 61.3542 422.188 62.6042 423.938 63.5625C425.729 64.5208 427.792 65 430.125 65C431.708 65 433.333 64.7917 435 64.375C436.708 63.9583 438.167 63.25 439.375 62.25L439.625 57.375L424.625 57.125L425.375 38.375C431.583 38.1667 437.792 38 444 37.875C450.208 37.7083 456.458 37.5 462.75 37.25L463.5 78ZM538.062 41.5C538.062 45.125 537.812 48.75 537.312 52.375C530.188 52.8333 523.104 53.5833 516.062 54.625C509.021 55.625 501.979 56.625 494.938 57.625C496.021 60.625 497.708 63.0208 500 64.8125C502.333 66.6042 505.104 67.5 508.312 67.5C509.979 67.5 511.792 67.1875 513.75 66.5625C515.75 65.9375 517.729 65.1667 519.688 64.25C521.646 63.2917 523.521 62.2708 525.312 61.1875C527.104 60.1042 528.646 59.125 529.938 58.25L526.938 86.625C525.312 87.875 523.542 88.9375 521.625 89.8125C519.75 90.6875 517.792 91.3958 515.75 91.9375C513.708 92.4792 511.646 92.875 509.562 93.125C507.479 93.375 505.438 93.5 503.438 93.5C499.312 93.5 495.542 92.9375 492.125 91.8125C488.708 90.6875 485.604 89.125 482.812 87.125C480.062 85.0833 477.646 82.6875 475.562 79.9375C473.479 77.1875 471.75 74.1875 470.375 70.9375C469 67.6875 467.958 64.25 467.25 60.625C466.542 57 466.188 53.3333 466.188 49.625C466.188 45.75 466.542 41.875 467.25 38C467.958 34.125 469.021 30.3958 470.438 26.8125C471.896 23.2292 473.708 19.9167 475.875 16.875C478.083 13.7917 480.646 11.1042 483.562 8.8125C486.479 6.52083 489.771 4.72917 493.438 3.4375C497.146 2.14583 501.229 1.5 505.688 1.5C509.396 1.5 512.771 2.02083 515.812 3.0625C518.896 4.0625 521.625 5.47917 524 7.3125C526.417 9.10417 528.5 11.25 530.25 13.75C532.042 16.25 533.5 19 534.625 22C535.792 24.9583 536.646 28.1042 537.188 31.4375C537.771 34.7292 538.062 38.0833 538.062 41.5ZM513.062 38.25C513.062 37.0833 512.938 35.8958 512.688 34.6875C512.438 33.4375 512.021 32.3125 511.438 31.3125C510.896 30.3125 510.167 29.5 509.25 28.875C508.333 28.2083 507.188 27.875 505.812 27.875C504.146 27.875 502.667 28.3333 501.375 29.25C500.125 30.125 499.042 31.25 498.125 32.625C497.208 33.9583 496.458 35.4167 495.875 37C495.292 38.5833 494.854 40.0417 494.562 41.375L513.062 39.625V38.25ZM606.25 60C606.25 65.7083 605.25 70.6458 603.25 74.8125C601.292 78.9375 598.583 82.3542 595.125 85.0625C591.708 87.7292 587.688 89.7083 583.062 91C578.479 92.25 573.542 92.875 568.25 92.875C566.208 92.875 563.958 92.6042 561.5 92.0625C559.083 91.5208 556.625 90.8542 554.125 90.0625C551.625 89.2292 549.208 88.3542 546.875 87.4375C544.583 86.4792 542.542 85.5833 540.75 84.75L543.5 60.25C547.042 62.375 550.958 64 555.25 65.125C559.583 66.2083 563.833 66.75 568 66.75C568.792 66.75 569.75 66.7292 570.875 66.6875C572 66.6042 573.062 66.4167 574.062 66.125C575.104 65.7917 575.979 65.3125 576.688 64.6875C577.396 64.0625 577.75 63.1667 577.75 62C577.75 61.2083 577.5 60.5417 577 60C576.5 59.4167 575.854 58.9583 575.062 58.625C574.271 58.25 573.375 57.9792 572.375 57.8125C571.375 57.6042 570.396 57.4583 569.438 57.375C568.479 57.2917 567.583 57.25 566.75 57.25C565.917 57.25 565.25 57.25 564.75 57.25C561.167 57.25 557.896 56.6875 554.938 55.5625C552.021 54.4375 549.5 52.8542 547.375 50.8125C545.292 48.7292 543.667 46.2292 542.5 43.3125C541.333 40.3542 540.75 37.0833 540.75 33.5C540.75 28.5833 541.729 24.1875 543.688 20.3125C545.688 16.3958 548.333 13.0833 551.625 10.375C554.958 7.625 558.771 5.52083 563.062 4.0625C567.354 2.60417 571.792 1.875 576.375 1.875C578.417 1.875 580.521 1.95833 582.688 2.125C584.854 2.25 587 2.5 589.125 2.875C591.292 3.25 593.396 3.72917 595.438 4.3125C597.479 4.89583 599.417 5.625 601.25 6.5L598.875 31.875C596.042 30.9167 593.062 30.125 589.938 29.5C586.854 28.8333 583.833 28.5 580.875 28.5C580.333 28.5 579.625 28.5208 578.75 28.5625C577.917 28.5625 577.021 28.625 576.062 28.75C575.146 28.8333 574.208 28.9792 573.25 29.1875C572.292 29.3958 571.438 29.6875 570.688 30.0625C569.938 30.3958 569.333 30.8542 568.875 31.4375C568.417 32.0208 568.208 32.7083 568.25 33.5C568.292 34.4167 568.625 35.125 569.25 35.625C569.917 36.125 570.75 36.5 571.75 36.75C572.792 36.9583 573.917 37.0625 575.125 37.0625C576.375 37.0625 577.604 37.0417 578.812 37C580.021 36.9167 581.146 36.8542 582.188 36.8125C583.229 36.7292 584.083 36.7083 584.75 36.75C588.083 36.9583 591.083 37.6667 593.75 38.875C596.417 40.0833 598.667 41.6875 600.5 43.6875C602.375 45.6875 603.792 48.0833 604.75 50.875C605.75 53.625 606.25 56.6667 606.25 60Z" fill="black"/>
</svg>
